# xmcd CD database file
#
# Track frame offsets:
#	150
#	22063
#	37625
#	55683
#	70175
#	82250
#	101505
#	122948
#
# Disc length: 1906 seconds
#
# Revision: 6
# Processed by: cddbd v1.5.2PL0 Copyright (c) Steve Scherf et al.
# Submitted via: CDex 1.60beta1-cs1
#
DISCID=64077008
DTITLE=Marvin Gaye - Let's Get It On
DYEAR=1973
DGENRE=Soul
TTITLE0=Let's Get It On
TTITLE1=Please Don't Stay
TTITLE2=If I Should Die Tonight
TTITLE3=Keep Gettin It On
TTITLE4=Come Get To This
TTITLE5=Distant Lover
TTITLE6=You Sure Love To Ball
TTITLE7=Just To Keep You Satisfied
EXTD=Entry cleaned up by <hairy@arse.com>\n YEAR: 1973
EXTT0=
EXTT1=
EXTT2=
EXTT3=
EXTT4=
EXTT5=
EXTT6=
EXTT7=
PLAYORDER=
